<svg style="width: 0.5em;">
    <path d="M 6.61 1.70 q 0.00 -0.12 -0.08 -0.12 q -0.03 0.00 -0.08 0.03 q -1.01 0.79 -1.75 1.86 t -1.37 2.69 t -0.95 3.99 t -0.33 5.44 v 0.89 h 1.68 v -0.89 q 0.00 -1.72 0.04 -2.99 t 0.22 -2.94 t 0.50 -2.92 t 0.91 -2.51 t 1.43 -2.13 q 0.12 -0.14 0.12 -0.42 z" stroke="none"></path>
    <path d="M 0.90 16.50 v 0.00 h 1.68 v 0.00 z" stroke="none"></path>
    <path d="M 6.61 31.30 q 0.00 0.12 -0.08 0.12 q -0.03 0.00 -0.08 -0.03 q -1.01 -0.79 -1.75 -1.86 t -1.37 -2.69 t -0.95 -3.99 t -0.33 -5.44 v -0.89 h 1.68 v 0.89 q 0.00 1.72 0.04 2.99 t 0.22 2.94 t 0.50 2.92 t 0.91 2.51 t 1.43 2.13 q 0.12 0.14 0.12 0.42 z" stroke="none"></path>
</svg>
